<mxfile host="app.diagrams.net" modified="2023-11-26T20:18:48.622Z" agent="Mozilla/5.0 (Windows NT 10.0; Win64; x64) AppleWebKit/537.36 (KHTML, like Gecko) Chrome/119.0.0.0 Safari/537.36" etag="zXWAYYOl3DcreJXAYjbs" version="21.5.0" type="github">
  <diagram name="Page-1" id="e7e014a7-5840-1c2e-5031-d8a46d1fe8dd">
    <mxGraphModel dx="794" dy="470" grid="1" gridSize="10" guides="1" tooltips="1" connect="1" arrows="1" fold="1" page="1" pageScale="1" pageWidth="1169" pageHeight="826" background="none" math="0" shadow="0">
      <root>
        <mxCell id="0" />
        <mxCell id="1" parent="0" />
        <mxCell id="2" value="Admin" style="swimlane;whiteSpace=wrap;noLabel=0;" parent="1" vertex="1">
          <mxGeometry x="164.5" y="40" width="280" height="730" as="geometry" />
        </mxCell>
        <mxCell id="5" value="" style="ellipse;shape=startState;fillColor=#000000;strokeColor=#ff0000;" parent="2" vertex="1">
          <mxGeometry x="100" y="40" width="30" height="30" as="geometry" />
        </mxCell>
        <mxCell id="6" value="" style="edgeStyle=elbowEdgeStyle;elbow=horizontal;verticalAlign=bottom;endArrow=open;endSize=8;strokeColor=#000000;endFill=1;rounded=0;fontColor=#000000;" parent="2" source="5" target="7" edge="1">
          <mxGeometry x="100" y="40" as="geometry">
            <mxPoint x="115" y="110" as="targetPoint" />
          </mxGeometry>
        </mxCell>
        <mxCell id="7" value="Create video call" style="" parent="2" vertex="1">
          <mxGeometry x="60" y="110" width="110" height="50" as="geometry" />
        </mxCell>
        <mxCell id="8" value="Send video call link" style="" parent="2" vertex="1">
          <mxGeometry x="60" y="220" width="110" height="50" as="geometry" />
        </mxCell>
        <mxCell id="9" value="" style="endArrow=open;strokeColor=#000000;endFill=1;rounded=0" parent="2" source="7" target="8" edge="1">
          <mxGeometry relative="1" as="geometry" />
        </mxCell>
        <mxCell id="yYl_z5r6HPwx0wGMyoo8-55" value="" style="edgeStyle=orthogonalEdgeStyle;rounded=0;orthogonalLoop=1;jettySize=auto;html=1;" edge="1" parent="2" source="yYl_z5r6HPwx0wGMyoo8-52" target="yYl_z5r6HPwx0wGMyoo8-54">
          <mxGeometry relative="1" as="geometry" />
        </mxCell>
        <mxCell id="yYl_z5r6HPwx0wGMyoo8-52" value="Receive the request" style="whiteSpace=wrap;html=1;" vertex="1" parent="2">
          <mxGeometry x="60" y="320" width="110" height="60" as="geometry" />
        </mxCell>
        <mxCell id="yYl_z5r6HPwx0wGMyoo8-54" value="Approve the request?" style="rhombus;whiteSpace=wrap;html=1;" vertex="1" parent="2">
          <mxGeometry x="75" y="430" width="80" height="80" as="geometry" />
        </mxCell>
        <mxCell id="3" value="Users" style="swimlane;whiteSpace=wrap" parent="1" vertex="1">
          <mxGeometry x="444.5" y="40" width="280" height="730" as="geometry" />
        </mxCell>
        <mxCell id="16" value="Get the video call&#xa;link" style="" parent="3" vertex="1">
          <mxGeometry x="20" y="220" width="110" height="50" as="geometry" />
        </mxCell>
        <mxCell id="18" value="Ask for approval" style="" parent="3" vertex="1">
          <mxGeometry x="20" y="325" width="110" height="50" as="geometry" />
        </mxCell>
        <mxCell id="19" value="" style="endArrow=open;strokeColor=#000000;endFill=1;rounded=0" parent="3" source="16" target="18" edge="1">
          <mxGeometry relative="1" as="geometry" />
        </mxCell>
        <mxCell id="yYl_z5r6HPwx0wGMyoo8-66" style="edgeStyle=orthogonalEdgeStyle;rounded=0;orthogonalLoop=1;jettySize=auto;html=1;exitX=1;exitY=0.5;exitDx=0;exitDy=0;entryX=0.5;entryY=0;entryDx=0;entryDy=0;" edge="1" parent="3" source="yYl_z5r6HPwx0wGMyoo8-61" target="38">
          <mxGeometry relative="1" as="geometry" />
        </mxCell>
        <mxCell id="yYl_z5r6HPwx0wGMyoo8-61" value="Enter the call" style="whiteSpace=wrap;html=1;" vertex="1" parent="3">
          <mxGeometry x="20.5" y="440" width="120" height="60" as="geometry" />
        </mxCell>
        <mxCell id="yYl_z5r6HPwx0wGMyoo8-68" style="edgeStyle=orthogonalEdgeStyle;rounded=0;orthogonalLoop=1;jettySize=auto;html=1;exitX=1;exitY=0.5;exitDx=0;exitDy=0;entryX=0.5;entryY=0;entryDx=0;entryDy=0;" edge="1" parent="3" source="yYl_z5r6HPwx0wGMyoo8-64" target="38">
          <mxGeometry relative="1" as="geometry" />
        </mxCell>
        <mxCell id="yYl_z5r6HPwx0wGMyoo8-64" value="Exits the call" style="rounded=0;whiteSpace=wrap;html=1;" vertex="1" parent="3">
          <mxGeometry x="20.5" y="542" width="120" height="60" as="geometry" />
        </mxCell>
        <mxCell id="38" value="" style="ellipse;shape=endState;fillColor=#000000;strokeColor=#ff0000" parent="3" vertex="1">
          <mxGeometry x="185.5" y="650" width="30" height="30" as="geometry" />
        </mxCell>
        <mxCell id="yYl_z5r6HPwx0wGMyoo8-51" value="" style="edgeStyle=orthogonalEdgeStyle;rounded=0;orthogonalLoop=1;jettySize=auto;html=1;entryX=0;entryY=0.5;entryDx=0;entryDy=0;strokeColor=#000000;labelBorderColor=default;" edge="1" parent="1" source="8" target="16">
          <mxGeometry relative="1" as="geometry">
            <mxPoint x="414.5" y="373" as="targetPoint" />
          </mxGeometry>
        </mxCell>
        <mxCell id="yYl_z5r6HPwx0wGMyoo8-74" value="[Via messages]" style="edgeLabel;html=1;align=center;verticalAlign=middle;resizable=0;points=[];" vertex="1" connectable="0" parent="yYl_z5r6HPwx0wGMyoo8-51">
          <mxGeometry x="-0.2077" y="-2" relative="1" as="geometry">
            <mxPoint x="8" as="offset" />
          </mxGeometry>
        </mxCell>
        <mxCell id="yYl_z5r6HPwx0wGMyoo8-53" value="" style="edgeStyle=orthogonalEdgeStyle;rounded=0;orthogonalLoop=1;jettySize=auto;html=1;strokeColor=#000000;" edge="1" parent="1" source="18" target="yYl_z5r6HPwx0wGMyoo8-52">
          <mxGeometry relative="1" as="geometry" />
        </mxCell>
        <mxCell id="yYl_z5r6HPwx0wGMyoo8-60" value="" style="edgeStyle=orthogonalEdgeStyle;rounded=0;orthogonalLoop=1;jettySize=auto;html=1;entryX=0;entryY=0.5;entryDx=0;entryDy=0;" edge="1" parent="1" source="yYl_z5r6HPwx0wGMyoo8-54" target="yYl_z5r6HPwx0wGMyoo8-61">
          <mxGeometry relative="1" as="geometry">
            <mxPoint x="460" y="600" as="targetPoint" />
          </mxGeometry>
        </mxCell>
        <mxCell id="yYl_z5r6HPwx0wGMyoo8-70" value="[Yes]" style="edgeLabel;html=1;align=center;verticalAlign=middle;resizable=0;points=[];" vertex="1" connectable="0" parent="yYl_z5r6HPwx0wGMyoo8-60">
          <mxGeometry x="-0.173" y="-4" relative="1" as="geometry">
            <mxPoint as="offset" />
          </mxGeometry>
        </mxCell>
        <mxCell id="yYl_z5r6HPwx0wGMyoo8-65" style="edgeStyle=orthogonalEdgeStyle;rounded=0;orthogonalLoop=1;jettySize=auto;html=1;exitX=0.5;exitY=1;exitDx=0;exitDy=0;entryX=0;entryY=0.5;entryDx=0;entryDy=0;" edge="1" parent="1" source="yYl_z5r6HPwx0wGMyoo8-54" target="yYl_z5r6HPwx0wGMyoo8-64">
          <mxGeometry relative="1" as="geometry" />
        </mxCell>
        <mxCell id="yYl_z5r6HPwx0wGMyoo8-71" value="[No]" style="edgeLabel;html=1;align=center;verticalAlign=middle;resizable=0;points=[];" vertex="1" connectable="0" parent="yYl_z5r6HPwx0wGMyoo8-65">
          <mxGeometry x="-0.1017" y="1" relative="1" as="geometry">
            <mxPoint x="49" as="offset" />
          </mxGeometry>
        </mxCell>
      </root>
    </mxGraphModel>
  </diagram>
</mxfile>
